<?xml version="1.0" standalone="no"?>
<!DOCTYPE svg PUBLIC "-//W3C//DTD SVG 20010904//EN"
 "http://www.w3.org/TR/2001/REC-SVG-20010904/DTD/svg10.dtd">
<svg version="1.0" xmlns="http://www.w3.org/2000/svg"
 width="240.000000pt" height="183.000000pt" viewBox="0 0 240.000000 183.000000"
 preserveAspectRatio="xMidYMid meet">

<g transform="translate(0.000000,183.000000) scale(0.100000,-0.100000)"
fill="#000000" stroke="none">
<path d="M0 915 l0 -915 1200 0 1200 0 0 915 0 915 -1200 0 -1200 0 0 -915z
m887 527 c-22 -24 -22 -39 -1 -18 23 24 49 19 87 -14 19 -16 37 -27 40 -23 9
8 77 -140 77 -166 0 -11 -9 -38 -20 -59 -17 -32 -18 -44 -9 -70 17 -49 5 -62
-20 -20 -13 22 -36 42 -59 52 -41 17 -29 22 15 6 26 -9 27 -9 9 5 -11 8 -25
15 -32 15 -7 0 -20 3 -30 7 -13 5 -15 3 -9 -7 5 -9 4 -11 -4 -6 -6 4 -21 26
-32 48 -52 101 -65 212 -29 248 25 25 39 26 17 2z m533 -56 c-43 -94 -34 -118
13 -33 20 37 37 72 37 77 0 6 4 10 9 10 5 0 -4 -32 -20 -71 -29 -71 -36 -105
-21 -95 5 3 21 36 37 73 40 97 46 97 19 2 -14 -45 -22 -85 -19 -88 9 -8 22 17
46 87 33 100 32 66 -3 -56 -18 -66 -35 -109 -41 -105 -6 4 -8 0 -4 -10 3 -9 3
-16 -1 -15 -4 1 -27 -8 -52 -20 -25 -12 -34 -19 -20 -17 l25 6 -27 -16 c-15
-8 -29 -24 -33 -34 -3 -11 -12 -24 -20 -31 -11 -9 -13 -7 -10 12 1 13 6 31 10
41 8 19 -12 77 -26 77 -18 0 -8 39 17 69 14 17 22 36 18 42 -4 7 -3 9 3 6 6
-4 14 0 17 9 4 10 2 13 -7 8 -7 -4 -6 1 3 12 8 10 28 45 44 76 17 32 31 56 33
54 2 -1 -11 -33 -27 -70z m-411 9 c-3 -2 -16 10 -29 28 l-23 32 29 -27 c15
-15 26 -30 23 -33z m241 -216 l35 -20 -35 6 c-49 8 -61 8 -100 1 l-35 -7 35
20 c44 25 56 25 100 0z m-35 -119 c19 7 23 6 19 -4 -3 -8 0 -17 7 -22 8 -5 10
-3 4 7 -7 12 -6 12 7 1 9 -7 18 -22 21 -32 5 -19 0 -20 -75 -20 l-81 0 19 21
c10 12 18 23 16 26 -2 3 0 8 4 11 4 4 4 1 -1 -7 -6 -10 -4 -12 4 -7 7 5 9 16
5 29 -6 20 -6 20 10 4 13 -12 23 -14 41 -7z m-335 0 c-8 -5 -52 -24 -97 -41
-46 -18 -83 -35 -83 -38 0 -3 37 -20 83 -36 56 -20 75 -31 59 -33 -32 -5 -231
62 -219 74 9 9 232 83 252 83 17 1 17 -1 5 -9z m784 -31 c65 -23 113 -45 109
-50 -15 -14 -184 -69 -211 -69 -18 1 0 11 55 33 46 18 83 35 83 38 0 4 -43 23
-95 44 -52 20 -95 38 -95 41 0 12 49 0 154 -37z m-209 -158 c58 -5 -32 -8
-250 -8 -187 1 -304 4 -260 7 113 9 403 9 510 1z m-963 -78 c32 -28 20 -113
-16 -113 -6 0 -5 5 2 12 13 13 16 66 6 92 -3 9 -15 16 -25 16 -17 0 -19 -8
-19 -60 0 -33 -4 -60 -10 -60 -6 0 -10 28 -10 65 0 64 1 65 27 65 14 0 35 -7
45 -17z m108 -48 c0 -84 -17 -84 -22 0 -2 47 0 65 10 65 8 0 12 -20 12 -65z
m124 59 c9 -3 16 -10 16 -15 0 -5 -9 -4 -20 3 -15 10 -22 10 -32 0 -10 -10 -5
-19 27 -46 34 -29 38 -36 26 -50 -7 -9 -18 -16 -23 -16 -6 0 -6 5 1 14 9 11 4
19 -24 40 -39 30 -44 50 -17 65 20 12 25 13 46 5z m111 -59 c0 -45 -4 -65 -12
-65 -9 0 -13 20 -13 65 0 45 4 65 13 65 8 0 12 -20 12 -65z m75 0 c0 -51 -3
-65 -15 -65 -12 0 -15 14 -15 65 0 51 3 65 15 65 12 0 15 -14 15 -65z m218 49
c33 -23 25 -114 -10 -114 -9 0 -9 3 0 12 16 16 16 80 0 96 -27 27 -38 13 -38
-48 0 -81 -17 -77 -22 5 -3 64 -3 65 22 65 14 0 36 -7 48 -16z m162 7 c0 -4
-11 -6 -25 -3 -24 4 -25 3 -25 -57 0 -42 -4 -61 -12 -61 -9 0 -13 20 -13 65
l0 65 38 0 c20 0 37 -4 37 -9z m90 -56 c0 -51 -3 -65 -15 -65 -12 0 -15 14
-15 65 0 51 3 65 15 65 12 0 15 -14 15 -65z m140 0 c0 -45 -4 -65 -12 -65 -9
0 -13 20 -13 65 0 45 4 65 13 65 8 0 12 -20 12 -65z m134 56 c3 -4 -6 -6 -19
-3 -32 6 -42 -32 -21 -82 8 -20 11 -36 6 -36 -14 0 -40 42 -40 65 0 44 56 86
74 56z m116 -56 c0 -51 -3 -65 -15 -65 -12 0 -15 14 -15 65 0 51 3 65 15 65
12 0 15 -14 15 -65z m70 0 c0 -45 -4 -65 -12 -65 -9 0 -13 20 -13 65 0 45 4
65 13 65 8 0 12 -20 12 -65z m150 55 c0 -5 -7 -7 -15 -4 -12 5 -15 -5 -15 -55
0 -42 -4 -61 -12 -61 -10 0 -12 17 -10 61 4 59 3 62 -17 56 -12 -3 -21 -1 -21
4 0 5 20 9 45 9 25 0 45 -4 45 -10z m-310 -96 c0 -28 -15 -25 -23 6 -3 13 0
20 9 20 8 0 14 -10 14 -26z m-994 -21 c-7 -7 -26 7 -26 19 0 6 6 6 15 -2 9 -7
13 -15 11 -17z m152 -70 c-10 -2 -28 -2 -40 0 -13 2 -5 4 17 4 22 1 32 -1 23
-4z m458 -24 c17 -10 36 -30 42 -44 19 -41 14 -54 -6 -15 -46 93 -218 93 -264
0 -20 -39 -25 -26 -6 14 31 70 154 93 234 45z m327 24 c-13 -2 -35 -2 -50 0
-16 2 -5 4 22 4 28 0 40 -2 28 -4z m-793 -69 c0 -2 -9 0 -20 6 -11 6 -20 13
-20 16 0 2 9 0 20 -6 11 -6 20 -13 20 -16z m780 22 c0 -2 -7 -7 -16 -10 -8 -3
-12 -2 -9 4 6 10 25 14 25 6z m-924 -26 c-58 -11 -76 -55 -34 -84 12 -9 17
-16 11 -16 -21 0 -43 31 -43 60 0 35 22 50 70 49 l35 -1 -39 -8z m1076 -7 c21
-19 23 -42 5 -67 -12 -16 -13 -14 -9 16 4 39 -9 54 -53 61 -30 4 -30 4 4 6 20
0 42 -6 53 -16z m-901 -10 c13 -16 12 -17 -3 -4 -10 7 -18 15 -18 17 0 8 8 3
21 -13z m679 4 c0 -2 -10 -12 -22 -23 l-23 -19 19 23 c18 21 26 27 26 19z"/>
</g>
</svg>
